<svg version="1.1" id="Layer_1" xmlns="http://www.w3.org/2000/svg" xmlns:xlink="http://www.w3.org/1999/xlink" x="0px" y="0px"
	 width="50px" height="auto" viewBox="161.508 37.8 126.984 274.4" enable-background="new 161.508 37.8 126.984 274.4"
	 xml:space="preserve" fill="#ECE387" opacity=".5">
	<g>
		<path d="M227.266,140.892L227.266,140.892z M251.193,177.493c-0.533,0-0.971-0.439-0.969-0.975c0.004-0.537,0.439-0.972,0.98-0.972
			l13.549,0.05c0.537,0,0.973,0.438,0.969,0.975c0,0.537-0.436,0.972-0.977,0.97L251.193,177.493L251.193,177.493z M248.545,180.861
			c-0.383-0.378-0.387-0.99-0.012-1.368c0.375-0.385,0.988-0.388,1.369-0.013l12.784,12.617c0.385,0.378,0.388,0.988,0.013,1.369
			c-0.379,0.381-0.992,0.387-1.369,0.012L248.545,180.861z M245.051,181.398c-0.006-0.537,0.414-0.979,0.955-0.989
			c0.531-0.013,0.975,0.416,0.984,0.948l0.313,17.011c0.012,0.53-0.412,0.977-0.951,0.987c-0.533,0.008-0.976-0.418-0.985-0.952
			L245.051,181.398z M241.848,179.612c0.384-0.384,0.994-0.384,1.372,0c0.381,0.379,0.381,0.994,0,1.372l-10.478,10.449
			c-0.38,0.379-0.992,0.379-1.373,0c-0.377-0.383-0.377-0.994,0-1.375L241.848,179.612z M241.315,175.876
			c0.529,0.071,0.901,0.56,0.831,1.092c-0.068,0.531-0.562,0.904-1.094,0.837l-13.703-1.817c-0.529-0.068-0.902-0.562-0.832-1.095
			c0.07-0.532,0.562-0.901,1.095-0.829L241.315,175.876z M241.104,150.602c-1.336,7.121,0.26,10.301,1.85,13.468
			c1.414,2.825,2.826,5.633,1.42,12.241c-0.168,0.787,0.334,1.562,1.117,1.729c0.784,0.17,1.561-0.334,1.73-1.117
			c1.615-7.605-0.021-10.875-1.674-14.157c-1.328-2.643-2.652-5.294-1.691-11.06l3.704,1.478l0.003-0.008
			c0.996,0.403,2.062,0.361,2.975-0.034c0.906-0.389,1.668-1.128,2.065-2.133l0.009,0.002l27.932-69.941l5.291,2.111v-0.006
			c0.311,0.123,0.656,0.171,1.011,0.115c1.056-0.16,1.788-1.148,1.624-2.207l-6.289-41.61c-0.045-0.325-0.178-0.644-0.391-0.921
			c-0.656-0.849-1.875-1-2.719-0.342l-33.107,25.743c-0.327,0.21-0.596,0.524-0.752,0.916c-0.4,0.994,0.086,2.128,1.082,2.522
			l5.289,2.114l-27.933,69.941l0.008,0.003c-0.403,1-0.361,2.062,0.034,2.977c0.389,0.907,1.128,1.671,2.135,2.069l-0.004,0.009
			l1.484,0.591l-65.66,164.429c-0.397,0.998,0.09,2.131,1.086,2.526l0.022,0.011c1,0.398,2.131-0.086,2.526-1.089l65.66-164.424
			L241.104,150.602L241.104,150.602z M250.824,81.898l25.979-2.321l0,0l0.129,0.051l-3.083,7.722l-26.132,2.333L250.824,81.898z
			 M260.24,72.963l-6.064,0.543l1.02-2.559L260.24,72.963L260.24,72.963z M253.789,137.577l-26.133,2.338l3.315-8.305l26.136-2.338
			L253.789,137.577z M241.9,146.735l8.537-0.762l-1.436,3.598L241.9,146.735L241.9,146.735z M260.459,120.88l-26.135,2.338
			l3.37-8.445l26.134-2.333L260.459,120.88L260.459,120.88z M267.18,104.043l-26.133,2.338l3.313-8.308l26.136-2.335L267.18,104.043z
			 M249.002,149.571L249.002,149.571z"/>
	</g>
</svg>
