<svg version="1.1" id="Layer_1" opacity="0.5" xmlns="http://www.w3.org/2000/svg" xmlns:xlink="http://www.w3.org/1999/xlink"
	 x="0px" y="0px" width="50px" height="auto" viewBox="0 0 253.971 548.797" enable-background="new 0 0 253.971 548.797"
	 xml:space="preserve">
<g>
	<path fill="#ECE387" d="M65.758,103.091L65.758,103.091z M89.685,139.691c-0.533,0-0.971-0.438-0.969-0.975
		c0.004-0.537,0.438-0.972,0.979-0.972l13.549,0.05c0.537,0,0.974,0.438,0.97,0.975c0,0.537-0.437,0.972-0.978,0.97L89.685,139.691
		L89.685,139.691z M87.037,143.06c-0.384-0.378-0.388-0.99-0.013-1.368c0.375-0.385,0.988-0.388,1.369-0.013l12.784,12.617
		c0.385,0.378,0.388,0.987,0.013,1.369c-0.379,0.381-0.992,0.387-1.369,0.012L87.037,143.06z M83.543,143.597
		c-0.006-0.537,0.414-0.979,0.955-0.989c0.53-0.013,0.975,0.416,0.983,0.948l0.313,17.011c0.012,0.53-0.412,0.978-0.951,0.987
		c-0.533,0.008-0.977-0.418-0.985-0.952L83.543,143.597z M80.34,141.811c0.384-0.384,0.994-0.384,1.372,0
		c0.381,0.379,0.381,0.994,0,1.372l-10.479,10.449c-0.38,0.379-0.992,0.379-1.373,0c-0.377-0.383-0.377-0.994,0-1.375L80.34,141.811
		z M79.807,138.074c0.529,0.071,0.901,0.561,0.831,1.093c-0.068,0.53-0.562,0.903-1.094,0.837l-13.703-1.817
		c-0.529-0.067-0.902-0.562-0.832-1.095c0.07-0.532,0.562-0.901,1.095-0.829L79.807,138.074z M79.596,112.801
		c-1.336,7.121,0.26,10.301,1.85,13.468c1.414,2.825,2.826,5.633,1.42,12.241c-0.168,0.787,0.334,1.562,1.117,1.729
		c0.784,0.17,1.562-0.334,1.73-1.116c1.615-7.605-0.021-10.875-1.674-14.157c-1.328-2.643-2.652-5.294-1.691-11.06l3.704,1.478
		l0.003-0.008c0.996,0.403,2.062,0.361,2.975-0.034c0.906-0.389,1.668-1.128,2.065-2.133l0.009,0.002l27.933-69.941l5.29,2.111
		v-0.006c0.312,0.123,0.656,0.171,1.012,0.115c1.056-0.16,1.788-1.148,1.624-2.207l-6.289-41.61
		c-0.045-0.325-0.179-0.644-0.392-0.921c-0.655-0.849-1.875-1-2.719-0.342L84.456,26.152c-0.327,0.21-0.597,0.524-0.752,0.916
		c-0.4,0.994,0.086,2.128,1.082,2.522l5.288,2.114l-27.933,69.941l0.008,0.003c-0.403,1-0.361,2.062,0.034,2.977
		c0.389,0.907,1.128,1.671,2.135,2.069l-0.004,0.009l1.484,0.591L0.138,271.723c-0.397,0.998,0.09,2.131,1.086,2.526l0.022,0.011
		c1,0.397,2.131-0.086,2.526-1.089l65.66-164.424L79.596,112.801L79.596,112.801z M89.315,44.097l25.979-2.321l0,0l0.129,0.051
		l-3.083,7.722l-26.132,2.333L89.315,44.097z M98.731,35.162l-6.063,0.543l1.02-2.559L98.731,35.162L98.731,35.162z M92.28,99.776
		l-26.133,2.338l3.315-8.305l26.136-2.338L92.28,99.776z M80.392,108.934l8.537-0.762l-1.437,3.598L80.392,108.934L80.392,108.934z
		 M98.95,83.079l-26.135,2.338l3.37-8.445l26.134-2.333L98.95,83.079L98.95,83.079z M105.672,66.242L79.539,68.58l3.312-8.308
		l26.136-2.335L105.672,66.242z M87.493,111.77L87.493,111.77z"/>
</g>
<g>
	<path fill="#ECE387" d="M188.213,377.489L188.213,377.489z M164.287,414.09l-13.552,0.048c-0.541,0.002-0.978-0.433-0.978-0.97
		c-0.004-0.537,0.433-0.975,0.97-0.975l13.549-0.05c0.541,0,0.976,0.435,0.979,0.972C165.257,413.651,164.82,414.09,164.287,414.09
		L164.287,414.09z M154.15,430.075c-0.377,0.375-0.99,0.369-1.369-0.012c-0.375-0.382-0.372-0.991,0.013-1.369l12.784-12.617
		c0.381-0.375,0.994-0.372,1.369,0.013c0.375,0.378,0.371,0.99-0.013,1.368L154.15,430.075z M170.113,435
		c-0.009,0.534-0.452,0.96-0.985,0.952c-0.539-0.01-0.963-0.457-0.951-0.987l0.313-17.011c0.009-0.532,0.453-0.961,0.983-0.948
		c0.541,0.01,0.961,0.452,0.955,0.989L170.113,435z M184.111,426.655c0.377,0.381,0.377,0.992,0,1.375
		c-0.381,0.379-0.993,0.379-1.373,0l-10.479-10.449c-0.381-0.378-0.381-0.993,0-1.372c0.378-0.384,0.988-0.384,1.372,0
		L184.111,426.655z M187.868,410.662c0.533-0.072,1.024,0.297,1.095,0.828c0.07,0.533-0.303,1.027-0.832,1.095l-13.703,1.817
		c-0.531,0.066-1.025-0.307-1.094-0.837c-0.07-0.532,0.302-1.021,0.831-1.093L187.868,410.662z M174.375,387.199l10.163-4.054
		l65.66,164.424c0.396,1.003,1.526,1.486,2.526,1.089l0.021-0.011c0.996-0.396,1.483-1.528,1.086-2.526l-65.66-164.429l1.484-0.591
		l-0.004-0.01c1.007-0.397,1.746-1.162,2.135-2.068c0.395-0.915,0.437-1.977,0.034-2.977l0.008-0.004l-27.933-69.94l5.288-2.114
		c0.996-0.395,1.482-1.527,1.082-2.521c-0.155-0.393-0.425-0.707-0.752-0.916l-33.106-25.744c-0.844-0.657-2.063-0.506-2.719,0.343
		c-0.213,0.276-0.347,0.597-0.392,0.921l-6.289,41.609c-0.164,1.06,0.568,2.048,1.624,2.207c0.355,0.057,0.7,0.009,1.012-0.114
		v0.006l5.29-2.11l27.933,69.94l0.009-0.002c0.397,1.005,1.159,1.743,2.065,2.133c0.913,0.396,1.979,0.437,2.975,0.034l0.003,0.008
		l3.704-1.479c0.961,5.767-0.363,8.418-1.691,11.061c-1.652,3.282-3.289,6.553-1.674,14.157c0.169,0.782,0.946,1.286,1.73,1.116
		c0.783-0.167,1.285-0.941,1.117-1.729c-1.406-6.607,0.006-9.416,1.42-12.24C174.116,397.5,175.711,394.32,174.375,387.199
		L174.375,387.199z M167.762,326.28l-26.132-2.333l-3.083-7.723l0.129-0.051l0,0l25.979,2.322L167.762,326.28z M155.24,309.561
		l5.044-2.016l1.02,2.559L155.24,309.561L155.24,309.561z M158.373,365.869l26.136,2.338l3.315,8.305l-26.133-2.338L158.373,365.869
		z M173.58,383.332l-7.101,2.836l-1.437-3.598L173.58,383.332L173.58,383.332z M155.021,357.478l-3.369-8.44l26.134,2.334
		l3.37,8.444L155.021,357.478L155.021,357.478z M144.984,332.336l26.136,2.334l3.312,8.309l-26.133-2.338L144.984,332.336z
		 M166.478,386.168L166.478,386.168z"/>
</g>
</svg>
