<svg version="1.1" id="Layer_1" xmlns="http://www.w3.org/2000/svg" xmlns:xlink="http://www.w3.org/1999/xlink" x="0px" y="0px"
	 width="50px" height="auto" viewBox="15.5 0 422 350" enable-background="new 15.5 0 422 350" xml:space="preserve" fill="#AEDEF5" opacity=".25">
	<g>
		<path d="M93.96,343.029H63.815c-20.875-0.032-41.033-15.325-41.053-41.974c0,0,0.02-190.272,0-190.851
			c0.02-23.577,19.693-41.488,41.053-41.505H93.96V343.029L93.96,343.029z"/>
		<path d="M283.65,69.164V29.728c0.113-14.204-12.489-23.288-27.826-23.177c0,0-58.649-0.109-58.437,0
			c-15.276-0.109-28.091,8.973-28.063,23.177v39.436h-54.961v274.334h224.706V69.164H283.65z M263.015,69.164h-73.518V28.58h73.518
			V69.164z"/>
		<path d="M359.248,343.029h30.146c20.712-0.037,40.875-15.329,40.817-41.978c0,0,0.062-190.272,0-190.851
			c0.062-23.577-19.615-41.49-40.817-41.506h-30.146V343.029L359.248,343.029z"/>
	</g>
</svg>
