<svg version="1.1" id="Layer_1" opacity="0.25" xmlns="http://www.w3.org/2000/svg" xmlns:xlink="http://www.w3.org/1999/xlink"
	 x="0px" y="0px" width="50px" height="auto" viewBox="0 0 896.262 896.44" enable-background="new 0 0 896.262 896.44"
	 xml:space="preserve">
<g>
	<path fill="#AEDEF5" d="M33.6,227.045l-21.316-21.316c-14.738-14.783-18.178-39.851,0.651-58.708
		c0,0,134.557-134.528,134.952-134.952c16.686-16.657,43.261-15.412,58.377-0.319l21.315,21.315L33.6,227.045L33.6,227.045z"/>
	<path fill="#AEDEF5" d="M361.382,167.524l27.886-27.886c10.124-9.963,7.636-25.298-3.286-36.064c0,0-41.396-41.549-41.322-41.322
		c-10.725-10.879-26.208-13.519-36.232-3.455l-27.885,27.885L241.678,47.82L47.694,241.804l158.891,158.892l193.984-193.984
		L361.382,167.524z M346.791,152.933l-51.985-51.985l28.697-28.697l51.985,51.985L346.791,152.933z"/>
	<path fill="#AEDEF5" d="M221.187,414.632l21.316,21.316c14.671,14.62,39.742,18.063,58.545-0.82
		c0,0,134.586-134.499,134.952-134.952c16.715-16.628,15.468-43.208,0.487-58.212l-21.316-21.315L221.187,414.632L221.187,414.632z"
		/>
</g>
<g>
	<path fill="#AEDEF5" d="M862.662,675.364l-193.979-193.98l21.315-21.316c15.115-15.092,41.691-16.338,58.377,0.32
		c0.395,0.424,134.951,134.951,134.951,134.951c18.83,18.857,15.39,43.926,0.652,58.709L862.662,675.364L862.662,675.364z"/>
	<path fill="#AEDEF5" d="M495.692,655.03l193.983,193.984l158.892-158.892L654.584,496.14l-38.864,38.863l-27.885-27.886
		c-10.024-10.063-25.508-7.425-36.232,3.454c0.073-0.227-41.322,41.322-41.322,41.322c-10.922,10.766-13.41,26.101-3.286,36.064
		l27.886,27.885L495.692,655.03z M520.773,572.556l51.985-51.986l28.697,28.697l-51.985,51.985L520.773,572.556z"/>
	<path fill="#AEDEF5" d="M675.074,862.951L481.091,668.968l-21.316,21.315c-14.98,15.004-16.228,41.584,0.487,58.212
		c0.366,0.453,134.952,134.952,134.952,134.952c18.803,18.884,43.874,15.44,58.545,0.82L675.074,862.951L675.074,862.951z"/>
</g>
</svg>
