<svg version="1.1" id="Layer_1" xmlns="http://www.w3.org/2000/svg" xmlns:xlink="http://www.w3.org/1999/xlink" x="0px" y="0px"
	 width="50px" height="auto" viewBox="75.705 0 304.795 350" enable-background="new 75.705 0 304.795 350"
	 xml:space="preserve" fill="#FCBB83" opacity=".25">
	<g>
		<path d="M312.359,198.889c0,6.235-5.023,11.29-11.257,11.29s-11.289-5.06-11.289-11.29c0-6.229,5.059-11.288,11.289-11.288
			C307.334,187.601,312.359,192.654,312.359,198.889z"/>
		<path d="M166.39,198.889c0,6.235-5.062,11.29-11.297,11.29c-6.23,0-11.251-5.06-11.251-11.29c0-6.229,5.021-11.288,11.251-11.288
			C161.332,187.601,166.39,192.654,166.39,198.889z"/>
		<path d="M369.668,174.127L316.732,15.013c-0.747-2.029-2.596-3.384-4.692-3.49h-0.397c-1.994,0-3.811,1.137-4.738,3.029
			l-30.702,64.076h-96.21l-30.703-64.076c-0.926-1.855-2.741-3.029-5.058-3.029c-2.175,0.106-4.025,1.459-4.771,3.526L86.563,174.02
			c-0.748,1.889-0.356,3.955,0.962,5.486l133.932,155.806c1.673,2.027,4.167,3.166,6.768,3.166c2.599,0,5.091-1.139,6.763-3.134
			l133.65-155.84C369.99,178.013,370.381,175.91,369.668,174.127z M207.064,302.321c-0.036,0-0.036,0-0.073,0
			c-1.532,0-3.027-0.643-4.059-1.885L98.884,178.472c-1.602-1.892-1.711-4.632-0.248-6.63c0.821-1.141,20.729-28.032,46.165-28.032
			c10.825,0,20.872,4.771,29.812,14.247c26.931,28.391,32.81,88.763,36.299,124.848c0.461,4.774,0.893,9.009,1.282,12.574
			c0.145,0.502,0.214,0.994,0.214,1.497C212.409,299.939,210.023,302.321,207.064,302.321z M357.311,178.476L253.264,300.44
			c-1.035,1.242-2.526,1.885-4.062,1.885c-0.712,0-1.458-0.141-2.137-0.462c-2.176-0.925-3.455-3.17-3.167-5.523
			c0.421-3.737,0.887-8.264,1.386-13.428c3.49-36.083,9.365-96.456,36.297-124.847c8.939-9.477,18.98-14.248,29.813-14.248
			c25.435,0,45.343,26.893,46.161,28.032C359.021,173.843,358.907,176.584,357.311,178.476z"/>
	</g>
</svg>
