<svg version="1.1" id="Layer_1" opacity="0.25" xmlns="http://www.w3.org/2000/svg" xmlns:xlink="http://www.w3.org/1999/xlink"
	 x="0px" y="0px" width="50px" height="auto" viewBox="0 0 588.476 588.977" enable-background="new 0 0 588.476 588.977"
	 xml:space="preserve">
<g>
	<path fill="#FCBB83" d="M160.783,252.77c-4.409,4.409-11.535,4.432-15.943,0.023c-4.408-4.407-4.404-11.561,0.001-15.966
		c4.405-4.404,11.559-4.404,15.964,0.001C165.211,241.234,165.192,248.36,160.783,252.77z"/>
	<path fill="#FCBB83" d="M57.567,149.554c-4.409,4.409-11.562,4.404-15.972-0.005c-4.405-4.405-4.377-11.534,0.028-15.939
		c4.405-4.405,11.532-4.432,15.938-0.026C61.972,137.995,61.976,145.145,57.567,149.554z"/>
	<path fill="#FCBB83" d="M218.816,275.784l75.078-149.942c0.907-1.963,0.558-4.229-0.849-5.786l-0.281-0.281
		c-1.41-1.41-3.499-1.891-5.492-1.209l-67.019,23.6l-68.03-68.031l23.598-67.019c0.656-1.966,0.203-4.08-1.435-5.718
		c-1.613-1.463-3.877-1.814-5.867-0.881L18.706,75.522c-1.865,0.807-3.048,2.545-3.199,4.559L0.04,284.958
		c-0.25,2.616,0.708,5.186,2.547,7.024c1.837,1.838,4.405,2.795,6.999,2.565l204.7-15.69
		C216.295,278.76,218.06,277.549,218.816,275.784z M13.19,251.452c-0.025-0.025-0.025-0.025-0.052-0.052
		c-1.083-1.083-1.686-2.595-1.537-4.202L24.27,87.383c0.205-2.471,2.065-4.485,4.513-4.864c1.388-0.226,34.479-5.164,52.465,12.822
		c7.654,7.654,11.385,18.132,11.006,31.154c-1.032,39.119-39.564,85.965-62.613,113.949c-3.05,3.702-5.739,7.001-7.985,9.798
		c-0.252,0.457-0.552,0.854-0.907,1.209C18.654,253.548,15.283,253.545,13.19,251.452z M207.003,270.121l-159.814,12.67
		c-1.61,0.146-3.12-0.453-4.206-1.539c-0.504-0.504-0.931-1.131-1.184-1.839c-0.884-2.192-0.202-4.685,1.667-6.145
		c2.939-2.345,6.471-5.216,10.475-8.515c27.981-23.047,74.826-61.583,113.946-62.614c13.022-0.381,23.496,3.346,31.156,11.006
		c17.986,17.985,13.045,51.078,12.819,52.463C211.488,268.055,209.469,269.912,207.003,270.121z"/>
</g>
<g>
	<path fill="#FCBB83" d="M546.664,428.193c4.409,4.41,4.432,11.535,0.023,15.943c-4.407,4.408-11.561,4.404-15.966,0
		c-4.404-4.405-4.404-11.56,0.001-15.965C535.129,423.766,542.255,423.785,546.664,428.193z"/>
	<path fill="#FCBB83" d="M443.448,531.41c4.409,4.408,4.403,11.562-0.005,15.971c-4.405,4.406-11.534,4.377-15.939-0.027
		c-4.404-4.404-4.432-11.532-0.025-15.938C431.89,527.004,439.039,527,443.448,531.41z"/>
	<path fill="#FCBB83" d="M569.679,370.16l-149.942-75.078c-1.963-0.907-4.229-0.558-5.785,0.849l-0.281,0.281
		c-1.41,1.41-1.891,3.499-1.209,5.492l23.6,67.019l-68.031,68.03l-67.019-23.599c-1.966-0.656-4.08-0.203-5.718,1.436
		c-1.463,1.613-1.814,3.877-0.881,5.867l75.005,149.813c0.807,1.864,2.545,3.048,4.56,3.199l204.876,15.468
		c2.616,0.25,5.186-0.709,7.024-2.548c1.838-1.837,2.795-4.405,2.565-6.999l-15.69-204.699
		C572.654,372.682,571.443,370.917,569.679,370.16z M545.347,575.786c-0.025,0.025-0.025,0.025-0.052,0.052
		c-1.083,1.083-2.595,1.686-4.202,1.537l-159.815-12.668c-2.471-0.205-4.485-2.066-4.863-4.514
		c-0.227-1.387-5.164-34.479,12.822-52.465c7.654-7.654,18.132-11.385,31.154-11.006c39.118,1.032,85.965,39.564,113.948,62.613
		c3.702,3.05,7.001,5.738,9.798,7.984c0.457,0.253,0.854,0.553,1.209,0.908C547.442,570.322,547.439,573.693,545.347,575.786z
		 M564.016,381.974l12.67,159.813c0.146,1.611-0.453,3.12-1.539,4.206c-0.504,0.504-1.131,0.931-1.839,1.185
		c-2.192,0.884-4.685,0.201-6.145-1.667c-2.345-2.939-5.216-6.471-8.515-10.476c-23.047-27.98-61.583-74.826-62.614-113.945
		c-0.381-13.021,3.346-23.496,11.006-31.156c17.985-17.985,51.078-13.045,52.463-12.818
		C561.949,377.488,563.807,379.508,564.016,381.974z"/>
</g>
</svg>
