<svg version="1.1" id="Layer_1" xmlns="http://www.w3.org/2000/svg" xmlns:xlink="http://www.w3.org/1999/xlink" x="0px" y="0px"
	 width="50px" height="auto" viewBox="147.25 21.5 302.75 328.5" enable-background="new 147.25 21.5 302.75 328.5"
	 xml:space="preserve" fill="#F7F9F6" opacity=".25">
	<path d="M298.647,36.535c-19.054,0-34.543,14.951-34.543,33.413c0,13.591,8.401,25.303,20.425,30.529l-0.355,17.315h-92.713v18.306
		h92.302L280.97,268.81c-0.055,2.675,0.024,29.645-37.02,11.003c-37.152-18.697-16.157-39.871-13.662-40.494
		c-21.827-6.723-41.61-25.409-57.588-44.596c-15.679,34.192,12.4,70.691,13.754,75.898c3.369-3.611,8.411-3.035,11.498-2.528
		c37.818,57.65,87.392,50.748,100.697,66.872c13.304-16.124,62.834-9.222,100.648-66.872c3.09-0.507,8.13-1.084,11.5,2.528
		c1.354-5.205,29.433-41.706,13.751-75.898c-15.978,19.187-35.758,37.871-57.585,44.596c2.491,0.623,23.486,21.801-13.662,40.494
		c-37.044,18.642-36.963-8.324-37.02-11.003l-2.8-132.712h92.31v-18.307h-92.714l-0.365-17.314
		c12.03-5.229,20.434-16.942,20.434-30.529C333.146,51.487,317.702,36.535,298.647,36.535z M298.647,57.727
		c6.748,0,12.221,5.474,12.221,12.221c0,6.75-5.474,12.22-12.221,12.22s-12.268-5.47-12.268-12.22
		C286.38,63.2,291.9,57.727,298.647,57.727z"/>
</svg>
