<svg version="1.1" id="Layer_1" opacity="0.25" xmlns="http://www.w3.org/2000/svg" xmlns:xlink="http://www.w3.org/1999/xlink"
	 x="0px" y="0px" width="50px" height="auto" viewBox="0 0 526.323 526.323" enable-background="new 0 0 526.323 526.323"
	 xml:space="preserve">
<path fill="#F7F9F6" d="M244.856,18.335c-13.474-13.474-34.998-13.854-48.053-0.799c-9.61,9.61-11.951,23.832-7.145,36.029
	l-12.495,11.993L111.607,0L98.662,12.944l65.268,65.268l-95.816,91.867c-1.93,1.852-20.945,20.979-33.957-18.397
	c-13.05-39.491,16.769-39.618,18.973-38.294c-10.68-20.188-11.456-47.389-9.187-72.254C8.678,54.223,2.724,99.887,0,104.526
	c4.936-0.171,8.094,3.801,9.918,6.342c-14.023,67.506,25.911,97.679,23.917,118.489c20.809-1.993,50.951,37.91,118.455,23.884
	c2.543,1.826,6.515,4.982,6.344,9.92c4.638-2.724,50.303-8.679,63.392-43.944c-24.866,2.269-52.063,1.493-72.252-9.186
	c1.321,2.202,1.191,32.023-38.294,18.973c-39.376-13.012-20.25-32.022-18.397-33.956l91.862-95.822l65.273,65.273l12.945-12.945
	l-65.559-65.559l11.984-12.501c12.205,4.809,26.429,2.469,36.037-7.138C258.678,53.302,258.33,31.809,244.856,18.335z
	 M229.871,33.32c4.771,4.771,4.771,12.512,0,17.283c-4.773,4.773-12.512,4.77-17.282-0.001c-4.771-4.771-4.807-12.542-0.034-17.315
	C217.327,28.516,225.1,28.549,229.871,33.32z"/>
<path fill="#F7F9F6" d="M281.497,281.467c-13.474,13.474-13.854,34.998-0.799,48.053c9.609,9.61,23.832,11.951,36.029,7.145
	l11.992,12.495l-65.558,65.557l12.944,12.945l65.268-65.268l91.867,95.816c1.852,1.93,20.979,20.945-18.397,33.957
	c-39.491,13.051-39.618-16.769-38.294-18.973c-20.188,10.68-47.39,11.455-72.255,9.187c13.091,35.265,58.754,41.218,63.394,43.942
	c-0.172-4.936,3.801-8.094,6.342-9.918c67.507,14.023,97.68-25.911,118.489-23.918c-1.993-20.809,37.91-50.951,23.884-118.455
	c1.826-2.543,4.982-6.515,9.92-6.344c-2.724-4.637-8.679-50.303-43.944-63.391c2.269,24.865,1.493,52.062-9.186,72.252
	c2.202-1.32,32.023-1.191,18.973,38.295c-13.012,39.376-32.022,20.25-33.956,18.396l-95.822-91.861l65.273-65.273l-12.945-12.945
	l-65.559,65.559l-12.501-11.984c4.81-12.204,2.47-26.429-7.138-36.036C316.464,267.646,294.971,267.993,281.497,281.467z
	 M296.481,296.452c4.771-4.771,12.513-4.771,17.283,0c4.773,4.773,4.771,12.512,0,17.282c-4.771,4.771-12.543,4.808-17.316,0.034
	C291.678,308.997,291.711,301.224,296.481,296.452z"/>
</svg>
