<svg version="1.1" id="Layer_1" opacity="0.5" xmlns="http://www.w3.org/2000/svg" xmlns:xlink="http://www.w3.org/1999/xlink"
	 x="0px" y="0px" width="50px" height="auto" viewBox="0 0 779.728 779.729" enable-background="new 0 0 779.728 779.729"
	 xml:space="preserve">
<path fill="#F2E169" d="M332.769,366.221l-3.914-9.141c-0.525-1.219-2.024-1.683-3.143-0.956l-23.901,15.468L389.744,5.305
	c0.747-3.117-2.066-5.93-5.183-5.183L18.284,88.05l15.46-23.891c0.726-1.122,0.264-2.619-0.958-3.145l-9.139-3.914
	c-1.132-0.487-2.438,0.076-2.864,1.233L9.013,90.275l-5.713,1.373c-3.267,0.787-4.413,4.844-2.038,7.22l84.592,84.593
	c1.059,1.059,2.588,1.485,4.044,1.138l144.993-34.808c3.123-0.75,5.936,2.063,5.183,5.183l-34.809,144.991
	c-0.347,1.455,0.081,2.986,1.139,4.044l84.593,84.594c2.374,2.374,6.433,1.229,7.219-2.038l1.369-5.702l31.952-11.774
	C332.69,368.659,333.253,367.35,332.769,366.221z"/>
<path fill="#F2E169" d="M756.086,446.96l-9.141,3.914c-1.219,0.525-1.683,2.024-0.956,3.143l15.468,23.901l-366.288-87.934
	c-3.117-0.747-5.93,2.066-5.182,5.183l87.928,366.278l-23.892-15.461c-1.122-0.725-2.619-0.264-3.145,0.959l-3.913,9.139
	c-0.487,1.133,0.076,2.438,1.232,2.864l31.941,11.77l1.373,5.714c0.786,3.267,4.844,4.412,7.219,2.037l84.594-84.592
	c1.059-1.059,1.485-2.589,1.138-4.045l-34.808-144.992c-0.75-3.123,2.062-5.936,5.182-5.183l144.992,34.81
	c1.455,0.346,2.986-0.081,4.044-1.139l84.594-84.594c2.374-2.374,1.229-6.433-2.038-7.219l-5.702-1.369l-11.774-31.952
	C758.524,447.038,757.215,446.476,756.086,446.96z"/>
</svg>
