<svg version="1.1" id="Layer_1" xmlns="http://www.w3.org/2000/svg" xmlns:xlink="http://www.w3.org/1999/xlink" x="0px" y="0px"
	 width="50px" height="auto" viewBox="0 0 450 350" enable-background="new 0 0 450 350" xml:space="preserve" fill="#F2E169" opacity=".5">
<path d="M443.582,301.091l-9.23-3.695c-1.234-0.491-2.621,0.241-2.899,1.546l-5.964,27.838L228.664,5.597
	c-1.675-2.732-5.654-2.732-7.329,0L24.512,326.769l-5.962-27.825c-0.28-1.307-1.665-2.039-2.901-1.546l-9.23,3.695
	c-1.144,0.456-1.67,1.777-1.153,2.896l14.264,30.909l-3.07,5.01c-1.754,2.867,0.305,6.546,3.664,6.546h119.632
	c1.497,0,2.881-0.779,3.664-2.054l77.912-127.138c1.679-2.738,5.657-2.738,7.33,0l77.91,127.138
	c0.785,1.274,2.169,2.054,3.666,2.054h119.632c3.359,0,5.418-3.679,3.664-6.546l-3.064-5l14.268-30.919
	C445.252,302.87,444.724,301.547,443.582,301.091z"/>
</svg>
