
<svg version="1.1" id="Layer_1" xmlns="http://www.w3.org/2000/svg" xmlns:xlink="http://www.w3.org/1999/xlink" x="0px" y="0px"
	 width="50px" height="auto" viewBox="0 86.5 450 177" enable-background="new 0 86.5 450 177" xml:space="preserve" fill="#E5B176" opacity=".5">
	<path d="M407.537,118.399c-1.243-0.575-31.037-14.001-84.65-14.001c-29.69,0-45.812,4.571-60.023,8.65
		c-11.725,3.342-21.87,6.211-37.865,6.211c-16.019,0-26.142-2.87-37.864-6.211c-14.211-4.079-30.334-8.65-60.024-8.65
		c-53.614,0-83.408,13.426-84.652,14.001c-1.597,0.718-2.656,2.255-2.779,3.997l-1.556,22.979c-0.125,2.029,1.099,3.958,3.049,4.736
		c2.054,0.8,4.42,2.378,4.751,3.055c0.27,0.82,0.768,3.361,1.537,6.991c2.428,11.705,6.93,33.518,12.449,48.031
		c6.37,16.791,13.153,24.006,28.963,30.813c9.442,4.08,24.005,6.601,38.052,6.601c13.714,0,26.495-2.379,36.932-6.868
		c27.2-11.726,33.715-29.52,41.994-52.029c1.204-3.342,2.262-6.354,3.197-9.062c5.768-16.543,6.846-18.676,15.955-18.676
		c9.107,0,10.209,2.133,15.956,18.676c0.953,2.728,1.989,5.72,3.217,9.042c8.233,22.527,14.73,40.323,41.949,52.049
		c10.457,4.489,23.237,6.868,36.953,6.868c14.025,0,28.611-2.521,38.073-6.601c15.789-6.808,22.551-14.022,28.942-30.813
		c5.477-14.431,9.979-36.182,12.407-47.847c0.788-3.711,1.309-6.315,1.536-7.071c0.395-0.78,2.758-2.357,4.792-3.158
		c1.951-0.779,3.175-2.707,3.051-4.736l-1.557-22.979C410.194,120.654,409.115,119.115,407.537,118.399L407.537,118.399
		L407.537,118.399z M178.417,199.865c-8.526,17.691-26.433,26.669-53.196,26.669c-21.474,0-34.65-4.838-42.72-15.661
		c-7.802-10.497-17.243-55.328-11.08-69.187c5.912-13.242,33.197-17.979,56.807-17.979c24.793,0,54.235,5.125,60.251,16.338
		C194.664,151.546,190.91,173.911,178.417,199.865L178.417,199.865L178.417,199.865z M367.494,210.854
		c-8.072,10.842-21.246,15.679-42.721,15.679c-26.765,0-44.669-8.976-53.195-26.669c-12.473-25.953-16.246-48.296-10.086-59.819
		c6.038-11.213,35.479-16.317,60.293-16.317c23.568,0,50.875,4.716,56.788,17.957C384.736,155.545,375.295,200.376,367.494,210.854
		L367.494,210.854L367.494,210.854z"/>
</svg>
