<svg version="1.1" id="Layer_1" opacity="0.08" xmlns="http://www.w3.org/2000/svg" xmlns:xlink="http://www.w3.org/1999/xlink"
	 x="0px" y="0px" width="50px" height="auto" viewBox="0 0 630.714 630.855" enable-background="new 0 0 630.714 630.855"
	 xml:space="preserve">
<path fill="#110D1B" d="M315.122,258.457c-0.473-1.286-12.046-31.847-49.957-69.758c-20.993-20.993-35.625-29.161-48.558-36.326
	c-10.654-5.927-19.856-11.072-31.166-22.382c-11.328-11.327-16.457-20.515-22.383-31.166c-7.164-12.933-15.333-27.566-36.327-48.56
	C88.821,12.354,58.259,0.781,56.973,0.308c-1.637-0.622-3.473-0.284-4.791,0.861L34.833,16.317
	c-1.523,1.346-2.021,3.576-1.193,5.504c0.887,2.019,1.443,4.807,1.199,5.52c-0.389,0.771-1.833,2.919-3.857,6.03
	c-6.559,9.994-18.8,28.601-25.16,42.766c-7.369,16.377-7.674,26.275-1.308,42.268c3.791,9.562,12.306,21.642,22.239,31.575
	c9.698,9.697,20.417,17.053,30.972,21.258c27.525,10.942,44.714,2.966,66.484-7.096c3.215-1.512,6.092-2.894,8.668-4.147
	c15.776-7.619,18.047-8.365,24.488-1.924c6.439,6.439,5.71,8.727-1.924,24.489c-1.255,2.603-2.638,5.45-4.119,8.668
	c-10.107,21.751-18.097,38.928-7.142,66.467c4.22,10.568,11.574,21.287,21.273,30.986c9.917,9.917,22.014,18.448,31.589,22.254
	c15.979,6.35,25.861,6.031,42.253-1.323c14.077-6.331,32.641-18.528,42.606-25.06c3.181-2.067,5.391-3.54,6.086-3.914
	c0.831-0.271,3.616,0.284,5.621,1.155c1.931,0.829,4.159,0.331,5.506-1.191l15.148-17.35
	C315.406,261.93,315.731,260.079,315.122,258.457L315.122,258.457L315.122,258.457z M95.505,154.05
	c-18.538,6.481-37.549,0.167-56.473-18.757c-15.185-15.185-21.08-27.923-19.134-41.282c1.906-12.939,26.93-51.315,41.088-56.757
	c13.544-5.183,36.187,10.761,52.882,27.456c17.531,17.531,34.726,41.974,31.051,54.156
	C141.16,131.372,122.691,144.532,95.505,154.05L95.505,154.05L95.505,154.05z M221.432,295.518
	c-13.374,1.959-26.11-3.937-41.295-19.121c-18.926-18.926-25.239-37.934-18.757-56.473c9.532-27.172,22.663-45.638,35.167-49.43
	c12.197-3.66,36.625,13.549,54.17,31.095c16.666,16.666,32.64,39.309,27.457,52.853
	C272.733,268.601,234.356,293.625,221.432,295.518L221.432,295.518L221.432,295.518z"/>
<path fill="#110D1B" d="M573.739,315.734c-1.286,0.473-31.847,12.045-69.758,49.957c-20.993,20.992-29.161,35.625-36.326,48.559
	c-5.927,10.654-11.072,19.855-22.382,31.166c-11.327,11.326-20.515,16.455-31.166,22.383c-12.933,7.164-27.565,15.332-48.56,36.326
	c-37.911,37.91-49.484,68.473-49.958,69.758c-0.622,1.637-0.284,3.473,0.861,4.791l15.148,17.35
	c1.347,1.523,3.576,2.021,5.505,1.193c2.018-0.887,4.807-1.443,5.52-1.199c0.771,0.389,2.92,1.832,6.03,3.855
	c9.993,6.561,28.601,18.801,42.767,25.16c16.377,7.369,26.274,7.674,42.268,1.309c9.561-3.791,21.642-12.307,31.574-22.238
	c9.697-9.699,17.053-20.418,21.258-30.973c10.942-27.525,2.967-44.713-7.096-66.484c-1.512-3.215-2.893-6.092-4.146-8.668
	c-7.619-15.775-8.365-18.047-1.924-24.488c6.439-6.439,8.727-5.709,24.488,1.924c2.603,1.256,5.45,2.639,8.668,4.119
	c21.751,10.107,38.928,18.098,66.467,7.141c10.568-4.219,21.287-11.572,30.986-21.271c9.917-9.918,18.448-22.014,22.254-31.59
	c6.35-15.979,6.031-25.861-1.323-42.254c-6.331-14.076-18.528-32.641-25.06-42.605c-2.067-3.182-3.54-5.391-3.914-6.086
	c-0.271-0.832,0.284-3.617,1.155-5.621c0.829-1.932,0.331-4.16-1.191-5.506l-17.35-15.148
	C577.212,315.449,575.361,315.125,573.739,315.734L573.739,315.734L573.739,315.734z M469.332,535.352
	c6.481,18.537,0.167,37.549-18.757,56.473c-15.186,15.186-27.924,21.08-41.282,19.135c-12.939-1.906-51.315-26.932-56.757-41.088
	c-5.184-13.545,10.76-36.188,27.455-52.883c17.531-17.531,41.974-34.727,54.156-31.051
	C446.653,489.695,459.813,508.166,469.332,535.352L469.332,535.352L469.332,535.352z M610.8,409.424
	c1.959,13.375-3.937,26.111-19.121,41.295c-18.926,18.926-37.934,25.24-56.473,18.758c-27.172-9.533-45.639-22.664-49.43-35.168
	c-3.66-12.197,13.549-36.625,31.095-54.17c16.666-16.666,39.309-32.641,52.853-27.457C583.883,358.123,608.907,396.5,610.8,409.424
	L610.8,409.424L610.8,409.424z"/>
</svg>
