<svg version="1.1" id="Layer_1" xmlns="http://www.w3.org/2000/svg" xmlns:xlink="http://www.w3.org/1999/xlink" x="0px" y="0px"
	 width="50px" height="autopx" viewBox="83.5 0 281 350" enable-background="new 83.5 0 281 350" xml:space="preserve" fill="#FFF8A1" opacity=".5">
<g>
	<path d="M223.996,21.507C157.3,21.507,103.232,90.233,103.232,175c0,84.775,54.067,153.493,120.763,153.493
		c66.699,0,120.772-68.718,120.772-153.493C344.768,90.233,290.694,21.507,223.996,21.507z M223.996,319.474
		c-30.77,0-59.641-15.147-81.292-42.656c-21.43-27.233-33.222-63.391-33.222-101.814c0-38.422,11.792-74.579,33.222-101.813
		c21.651-27.517,50.522-42.666,81.292-42.666c30.777,0,59.659,15.149,81.295,42.659c21.427,27.234,33.229,63.391,33.229,101.813
		c0,38.425-11.803,74.581-33.229,101.814C283.654,304.328,254.772,319.474,223.996,319.474z"/>
	<path d="M223.996,37.048c-59.368,0-107.679,61.881-107.679,137.954c0,76.07,48.312,137.952,107.679,137.952
		c59.386,0,107.687-61.882,107.687-137.952C331.683,98.93,283.383,37.048,223.996,37.048z M288.379,252.75
		c-0.284,0-0.533,0.091-0.805,0.15c12.926-20.086,20.91-46.31,21.343-75.057c0.664,0.64,1.575,1.033,2.595,1.033
		c1.072,0,2.014-0.467,2.692-1.177c-0.388,30.031-8.678,57.418-22.173,78.506C292.01,254.295,290.396,252.75,288.379,252.75z
		 M282.094,240.259c-0.569,1.055-1.162,2.106-1.762,3.129c-0.033,0-0.069-0.01-0.113-0.01c-2.015,0-3.652,1.562-3.652,3.495
		c0,0.637,0.197,1.232,0.516,1.75c-0.602,0.903-1.216,1.797-1.851,2.666c-0.134-0.009-0.286-0.042-0.436-0.042
		c-2.021,0-3.653,1.565-3.653,3.492c0,0.516,0.134,1.014,0.347,1.461c-0.611,0.743-1.224,1.474-1.851,2.188
		c-0.271-0.06-0.532-0.095-0.814-0.095c-2.012,0-3.642,1.573-3.642,3.494c0,0.4,0.082,0.766,0.205,1.124
		c-0.608,0.604-1.222,1.181-1.841,1.755c-0.372-0.12-0.763-0.204-1.176-0.204c-2.031,0-3.659,1.562-3.659,3.492
		c0,0.263,0.032,0.505,0.09,0.759c-0.586,0.456-1.175,0.89-1.762,1.327c-0.478-0.223-1.019-0.362-1.584-0.362
		c-2.021,0-3.655,1.571-3.655,3.496c0,0.104,0.022,0.206,0.032,0.308c-0.556,0.339-1.118,0.66-1.677,0.977
		c-0.584-0.365-1.27-0.582-2.009-0.582c-1.961,0-3.554,1.482-3.643,3.337c-0.532,0.226-1.078,0.453-1.627,0.664
		c-0.646-0.545-1.478-0.881-2.394-0.881c-1.788,0-3.262,1.226-3.586,2.832c-0.524,0.142-1.062,0.266-1.598,0.396
		c-0.673-0.762-1.664-1.264-2.794-1.264c-1.574,0-2.912,0.969-3.429,2.314c-0.548,0.062-1.108,0.108-1.664,0.152
		c-0.647-1.014-1.799-1.712-3.137-1.712c-1.375,0-2.561,0.738-3.171,1.81c-0.992-0.051-1.961-0.119-2.943-0.215
		c-0.512-1.338-1.841-2.297-3.419-2.297c-1.132,0-2.128,0.512-2.8,1.288c-0.979-0.222-1.96-0.478-2.926-0.75
		c-0.293-1.648-1.781-2.895-3.588-2.895c-0.897,0-1.711,0.321-2.354,0.839c-0.966-0.396-1.938-0.834-2.89-1.274
		c0-1.938-1.632-3.497-3.649-3.497c-0.682,0-1.318,0.195-1.884,0.514c-0.972-0.6-1.941-1.222-2.896-1.884
		c0.026-0.17,0.047-0.349,0.047-0.526c0-1.925-1.638-3.483-3.652-3.483c-0.489,0-0.972,0.092-1.401,0.266
		c-0.982-0.813-1.958-1.65-2.914-2.524c0.101-0.323,0.17-0.646,0.17-0.991c0-1.933-1.638-3.497-3.659-3.497
		c-0.327,0-0.636,0.061-0.932,0.131c-0.454-0.484-0.9-0.965-1.346-1.469c0.169-0.401,0.272-0.851,0.272-1.319
		c0-1.923-1.63-3.487-3.651-3.487c-0.203,0-0.397,0.028-0.6,0.056c-0.469-0.6-0.932-1.204-1.388-1.83
		c0.255-0.482,0.416-1.025,0.416-1.596c0-1.932-1.638-3.501-3.651-3.501c-0.091,0-0.184,0.028-0.267,0.031
		c-0.477-0.729-0.939-1.457-1.397-2.198c0.353-0.54,0.575-1.177,0.575-1.869c0-1.921-1.638-3.479-3.643-3.485
		c-0.459-0.843-0.902-1.7-1.339-2.567c0.46-0.586,0.736-1.301,0.736-2.084c0-1.824-1.478-3.313-3.356-3.452
		c-0.419-0.98-0.853-1.963-1.25-2.961c0.551-0.617,0.907-1.407,0.907-2.29c0-1.737-1.346-3.172-3.094-3.433
		c-0.383-1.087-0.751-2.187-1.108-3.297c0.666-0.627,1.082-1.505,1.082-2.473c0-1.659-1.212-3.047-2.844-3.401
		c-0.336-1.192-0.639-2.418-0.946-3.644c0.782-0.638,1.281-1.569,1.281-2.629c0-1.567-1.099-2.891-2.596-3.322
		c-0.274-1.316-0.505-2.638-0.732-3.968c0.892-0.626,1.478-1.631,1.478-2.784c0-1.491-0.984-2.762-2.377-3.255
		c-0.169-1.402-0.334-2.826-0.469-4.249c1.009-0.623,1.675-1.708,1.675-2.93c0-1.416-0.886-2.631-2.145-3.18
		c-0.083-1.502-0.144-3.007-0.187-4.532c1.119-0.602,1.895-1.726,1.895-3.04c0-1.328-0.799-2.463-1.94-3.055
		c0.033-1.832,0.079-3.646,0.169-5.454c1.25-0.552,2.124-1.75,2.124-3.148c0-1.249-0.69-2.325-1.702-2.951
		c0.153-1.749,0.342-3.486,0.55-5.205c1.388-0.503,2.377-1.76,2.377-3.259c0-1.149-0.586-2.154-1.479-2.79
		c0.271-1.635,0.566-3.26,0.893-4.864c1.512-0.427,2.62-1.748,2.62-3.324c0-1.059-0.496-1.984-1.26-2.629
		c0.367-1.502,0.773-2.983,1.183-4.457c1.647-0.341,2.881-1.736,2.881-3.407c0-0.962-0.4-1.831-1.057-2.454
		c0.459-1.366,0.942-2.708,1.439-4.039c1.778-0.239,3.152-1.684,3.152-3.438c0-0.856-0.331-1.632-0.869-2.235
		c0.531-1.223,1.062-2.426,1.632-3.611c1.921-0.1,3.449-1.605,3.449-3.466c0-0.759-0.257-1.457-0.676-2.015
		c0.57-1.062,1.152-2.108,1.748-3.137c0.037,0.007,0.074,0.017,0.114,0.017c2.028,0,3.653-1.563,3.653-3.488
		c0-0.639-0.194-1.239-0.501-1.748c0.603-0.913,1.212-1.8,1.845-2.681c0.141,0.024,0.292,0.046,0.432,0.046
		c2.021,0,3.652-1.563,3.652-3.488c0-0.531-0.127-1.022-0.336-1.459c0.61-0.752,1.222-1.477,1.851-2.19
		c0.257,0.053,0.529,0.086,0.806,0.086c2.014,0,3.651-1.561,3.651-3.492c0-0.389-0.083-0.766-0.206-1.122
		c0.6-0.596,1.215-1.185,1.827-1.764c0.373,0.121,0.762,0.206,1.186,0.206c2.014,0,3.651-1.567,3.651-3.491
		c0-0.257-0.03-0.506-0.083-0.749c0.569-0.454,1.162-0.896,1.748-1.325c0.485,0.217,1.019,0.349,1.585,0.349
		c2.03,0,3.659-1.563,3.659-3.488c0-0.107-0.027-0.211-0.027-0.319c0.556-0.327,1.119-0.646,1.677-0.963
		c0.577,0.357,1.265,0.58,2.001,0.58c1.967,0,3.545-1.482,3.641-3.336c0.54-0.223,1.076-0.45,1.625-0.666
		c0.637,0.547,1.471,0.89,2.401,0.89c1.774,0,3.26-1.224,3.58-2.838c0.532-0.147,1.064-0.269,1.603-0.399
		c0.673,0.762,1.659,1.261,2.778,1.261c1.592,0,2.923-0.965,3.436-2.313c0.549-0.067,1.125-0.106,1.667-0.165
		c0.646,1.04,1.799,1.722,3.137,1.722c1.372,0,2.557-0.733,3.174-1.805c0.575,0.025,1.141,0.058,1.713,0.115
		c0.531,1.285,1.846,2.207,3.386,2.207c1.162,0,2.188-0.532,2.863-1.344c0.541,0.105,1.072,0.218,1.599,0.352
		c0.361,1.559,1.818,2.724,3.569,2.724c0.962,0,1.834-0.366,2.48-0.938c0.546,0.182,1.081,0.383,1.613,0.6
		c0.144,1.815,1.708,3.242,3.632,3.242c0.772,0,1.488-0.244,2.077-0.633c0.576,0.282,1.126,0.59,1.664,0.897
		c0,0.083-0.016,0.151-0.016,0.234c0,1.924,1.645,3.488,3.655,3.488c0.602,0,1.158-0.156,1.664-0.4
		c0.587,0.41,1.17,0.833,1.739,1.252c-0.037,0.216-0.064,0.443-0.064,0.679c0,1.928,1.63,3.486,3.649,3.486
		c0.45,0,0.868-0.083,1.269-0.217c0.609,0.545,1.215,1.098,1.825,1.67c-0.115,0.327-0.194,0.683-0.194,1.042
		c0,1.925,1.631,3.489,3.666,3.489c0.295,0,0.583-0.044,0.858-0.11c0.637,0.692,1.249,1.391,1.862,2.1
		c-0.204,0.433-0.319,0.905-0.319,1.408c0,1.924,1.636,3.497,3.654,3.497c0.177,0,0.349-0.034,0.518-0.057
		c0.629,0.849,1.236,1.707,1.84,2.579c-0.286,0.5-0.47,1.072-0.47,1.692c0,1.924,1.646,3.495,3.656,3.495
		c0.062,0,0.117-0.024,0.176-0.024c0.612,0.999,1.189,2.021,1.771,3.04c-0.4,0.566-0.639,1.239-0.639,1.975
		c0,1.878,1.566,3.402,3.509,3.473c0.575,1.159,1.126,2.325,1.664,3.516c-0.513,0.604-0.834,1.355-0.834,2.193
		c0,1.786,1.403,3.235,3.21,3.443c0.506,1.308,1.015,2.629,1.485,3.958c-0.63,0.625-1.026,1.481-1.026,2.418
		c0,1.694,1.261,3.103,2.934,3.415c0.435,1.442,0.848,2.897,1.245,4.373c-0.749,0.638-1.229,1.57-1.229,2.593
		c0,1.598,1.132,2.933,2.675,3.341c0.344,1.592,0.665,3.18,0.958,4.788c-0.869,0.639-1.441,1.631-1.441,2.762
		c0,1.509,1.02,2.787,2.425,3.263c0.24,1.715,0.45,3.42,0.625,5.147c-0.998,0.623-1.658,1.699-1.658,2.92
		c0,1.418,0.889,2.64,2.171,3.184c0.113,1.813,0.196,3.63,0.245,5.479c-1.114,0.602-1.887,1.725-1.887,3.042
		c0,1.323,0.789,2.463,1.942,3.059c-0.021,1.863-0.09,3.7-0.169,5.543c-1.249,0.556-2.129,1.755-2.129,3.162
		c0,1.235,0.683,2.324,1.718,2.945c-0.159,1.748-0.354,3.485-0.566,5.2c-1.382,0.5-2.368,1.766-2.368,3.263
		c0,1.135,0.587,2.15,1.479,2.788c-0.275,1.633-0.579,3.253-0.896,4.859c-1.51,0.434-2.62,1.745-2.62,3.337
		c0,1.047,0.504,1.977,1.27,2.622c-0.38,1.498-0.772,2.983-1.195,4.459c-1.649,0.341-2.886,1.73-2.886,3.401
		c0,0.96,0.411,1.827,1.06,2.458c-0.46,1.365-0.942,2.705-1.433,4.03c-1.788,0.239-3.164,1.682-3.164,3.445
		c0,0.858,0.338,1.624,0.877,2.233c-0.53,1.223-1.065,2.427-1.631,3.606c-1.915,0.1-3.445,1.615-3.445,3.472
		C281.42,238.99,281.669,239.689,282.094,240.259z M155.386,256.143c-13.484-21.115-21.766-48.529-22.126-78.576
		c0.672,0.779,1.645,1.309,2.784,1.309c1.126,0,2.093-0.512,2.757-1.271c0.396,28.827,8.386,55.144,21.34,75.292
		c-0.346-0.115-0.709-0.217-1.112-0.217C157.028,252.68,155.406,254.227,155.386,256.143z M160.593,95.933
		c0.343,0,0.639-0.104,0.949-0.179c-13.776,20.405-22.328,47.562-22.744,77.416c-0.662-0.762-1.631-1.274-2.756-1.274
		c-1.135,0-2.107,0.523-2.777,1.302c0.426-31.096,9.313-59.369,23.683-80.72C156.964,94.388,158.589,95.933,160.593,95.933z
		 M290.774,92.85c14.204,21.285,22.981,49.354,23.425,80.21c-0.674-0.706-1.613-1.166-2.687-1.166c-1.018,0-1.931,0.388-2.592,1.033
		c-0.454-29.462-8.81-56.283-22.308-76.561c0.177,0.023,0.343,0.096,0.532,0.096c2.015,0,3.657-1.558,3.657-3.495
		C290.803,92.934,290.774,92.891,290.774,92.85z M288.641,89.811c-0.458-0.2-0.962-0.319-1.495-0.319
		c-1.709,0-3.094,1.145-3.477,2.666c-14.459-19.675-34.008-32.301-55.645-33.742c0.672-0.693,1.098-1.595,1.098-2.607
		c0-1.389-0.806-2.547-1.938-3.233C251.28,53.804,272.951,67.836,288.641,89.811z M223.104,52.476
		c-1.225,0.669-2.094,1.885-2.094,3.333c0,0.972,0.416,1.848,1.045,2.53c-22.522,0.647-42.925,13.384-57.897,33.696
		c-0.213-1.724-1.701-3.077-3.562-3.077c-0.487,0-0.939,0.101-1.365,0.254C175.508,66.722,198.1,52.719,223.104,52.476z
		 M157.463,259.293c0.483,0.218,1.002,0.365,1.565,0.365c1.889,0,3.369-1.374,3.586-3.117
		c15.116,21.613,36.193,35.265,59.556,35.896c-0.703,0.694-1.159,1.64-1.159,2.695c0,1.513,0.932,2.771,2.24,3.412
		C197.269,298.371,173.88,283.292,157.463,259.293z M227.032,298.453c1.229-0.664,2.091-1.87,2.091-3.317
		c0-1.091-0.476-2.067-1.239-2.774c22.308-1.435,42.384-14.759,56.985-35.442c0.345,1.585,1.749,2.807,3.51,2.807
		c0.576,0,1.095-0.15,1.567-0.365C274.135,282.447,251.856,297.24,227.032,298.453z"/>
</g>
</svg>
