<svg version="1.1" id="Layer_1" opacity="0.5" xmlns="http://www.w3.org/2000/svg" xmlns:xlink="http://www.w3.org/1999/xlink"
	 x="0px" y="0px" width="50px" height="auto" viewBox="0 0 552.434 552.435" enable-background="new 0 0 552.434 552.435"
	 xml:space="preserve">
<g>
	<path fill="#FFF8A1" d="M246.645,29.57C199.483-17.591,112.655-7.226,52.715,52.713C-7.229,112.658-17.59,199.479,29.572,246.642
		c47.163,47.163,133.99,36.807,193.935-23.138C283.447,163.566,293.808,76.733,246.645,29.57z M35.95,240.265
		C14.192,218.507,4.488,187.382,8.63,152.62c4.103-34.41,21.333-68.315,48.501-95.485C84.3,29.967,118.206,12.738,152.616,8.634
		c34.767-4.148,65.894,5.555,87.651,27.313c21.763,21.762,31.474,52.897,27.32,87.648c-4.106,34.409-21.328,68.32-48.497,95.489
		c-27.17,27.17-61.083,44.391-95.49,48.497C88.844,271.739,57.712,262.026,35.95,240.265z"/>
	<path fill="#FFF8A1" d="M235.655,40.56C193.676-1.42,115.758,8.176,61.966,61.967C8.177,115.756-1.419,193.676,40.56,235.654
		c41.992,41.992,119.904,32.389,173.693-21.4C268.045,160.463,277.648,82.552,235.655,40.56z M128.656,238.609
		c-0.201-0.201-0.441-0.312-0.674-0.464c23.343-5.062,47.531-17.96,68.165-37.981c0.017,0.923,0.383,1.845,1.104,2.565
		c0.758,0.759,1.754,1.095,2.735,1.072c-21.509,20.96-46.737,34.464-71.191,39.833C130.131,242.269,130.083,240.035,128.656,238.609
		z M133.045,225.332c-1.148,0.344-2.311,0.668-3.458,0.967c-0.023-0.023-0.042-0.056-0.073-0.087
		c-1.424-1.425-3.687-1.478-5.054-0.111c-0.45,0.451-0.731,1.011-0.872,1.603c-1.064,0.213-2.13,0.411-3.194,0.576
		c-0.088-0.101-0.172-0.231-0.279-0.338c-1.429-1.429-3.689-1.477-5.052-0.113c-0.364,0.364-0.622,0.812-0.788,1.278
		c-0.957,0.093-1.907,0.177-2.856,0.237c-0.149-0.233-0.309-0.442-0.508-0.643c-1.423-1.422-3.688-1.462-5.046-0.104
		c-0.282,0.282-0.483,0.599-0.65,0.939c-0.857-0.003-1.699-0.029-2.543-0.062c-0.178-0.348-0.395-0.684-0.687-0.976
		c-1.436-1.436-3.692-1.482-5.057-0.118c-0.186,0.187-0.334,0.38-0.473,0.601c-0.737-0.092-1.459-0.202-2.184-0.308
		c-0.181-0.495-0.464-0.977-0.864-1.376c-1.429-1.429-3.696-1.474-5.057-0.112c-0.074,0.073-0.13,0.161-0.195,0.24
		c-0.634-0.153-1.257-0.324-1.877-0.495c-0.154-0.671-0.486-1.31-1.009-1.832c-1.387-1.387-3.561-1.466-4.936-0.216
		c-0.537-0.217-1.083-0.442-1.62-0.682c-0.071-0.842-0.422-1.668-1.07-2.315c-1.264-1.265-3.174-1.439-4.538-0.533
		c-0.471-0.27-0.939-0.563-1.411-0.85c0.063-1.015-0.282-2.071-1.081-2.87c-1.113-1.113-2.745-1.373-4.061-0.789
		c-0.432-0.343-0.86-0.706-1.284-1.068c0.259-1.175-0.062-2.482-1.008-3.429c-0.973-0.973-2.333-1.289-3.522-0.963
		c-0.666-0.737-1.302-1.471-1.929-2.232c0.584-1.309,0.322-2.926-0.793-4.042c-0.8-0.801-1.867-1.143-2.891-1.069
		c-0.536-0.849-1.048-1.724-1.539-2.599c0.958-1.373,0.788-3.308-0.49-4.585c-0.634-0.635-1.438-0.982-2.259-1.07
		c-0.402-0.964-0.78-1.961-1.143-2.944c1.371-1.37,1.319-3.628-0.107-5.054c-0.482-0.482-1.07-0.794-1.695-0.969
		c-0.264-1.111-0.509-2.236-0.716-3.379c0.138-0.103,0.28-0.215,0.405-0.34c1.361-1.36,1.305-3.621-0.119-5.045
		c-0.346-0.346-0.752-0.623-1.179-0.803c-0.12-1.269-0.218-2.55-0.276-3.844c0.299-0.157,0.577-0.337,0.82-0.58
		c1.367-1.367,1.315-3.632-0.114-5.062c-0.231-0.23-0.493-0.405-0.751-0.566c0.021-0.662,0.045-1.318,0.086-1.99
		c0.403-0.163,0.794-0.409,1.125-0.739c1.36-1.36,1.313-3.619-0.116-5.048c-0.144-0.144-0.3-0.261-0.463-0.385
		c0.092-0.756,0.191-1.51,0.312-2.276c0.521-0.16,1.019-0.43,1.422-0.834c1.366-1.366,1.317-3.634-0.106-5.057
		c-0.064-0.064-0.15-0.11-0.211-0.167c0.178-0.853,0.366-1.694,0.566-2.542c0.632-0.132,1.239-0.426,1.729-0.915
		c1.358-1.358,1.301-3.618-0.112-5.04c0.272-0.921,0.565-1.84,0.869-2.762c0.74-0.089,1.441-0.4,1.994-0.953
		c1.29-1.29,1.298-3.388,0.068-4.814c0.397-0.99,0.785-1.991,1.21-2.978c0.826-0.047,1.636-0.354,2.26-0.979
		c1.229-1.228,1.292-3.194,0.24-4.615c0.499-1.04,1.016-2.078,1.548-3.115c0.914,0.028,1.83-0.299,2.514-0.984
		c1.173-1.173,1.297-3.011,0.394-4.416c0.605-1.08,1.258-2.162,1.908-3.245c1.003,0.102,2.015-0.204,2.764-0.954
		c1.108-1.108,1.268-2.821,0.514-4.185c0.736-1.124,1.508-2.223,2.288-3.323c1.073,0.188,2.198-0.108,3.014-0.923
		c1.054-1.054,1.257-2.649,0.621-3.983c0.872-1.111,1.762-2.234,2.673-3.336c1.154,0.273,2.392-0.023,3.256-0.887
		c1.001-1.001,1.234-2.487,0.732-3.766c1.003-1.121,2.024-2.228,3.073-3.337c1.217,0.366,2.56,0.12,3.489-0.809
		c0.939-0.939,1.177-2.307,0.789-3.532c1.319-1.272,2.634-2.522,3.976-3.737c1.274,0.494,2.739,0.265,3.728-0.724
		C95,78.969,95.273,77.721,95,76.562c1.345-1.128,2.707-2.223,4.069-3.292c1.337,0.626,2.925,0.437,3.985-0.624
		c0.812-0.812,1.109-1.938,0.927-3.019c1.348-0.964,2.705-1.905,4.071-2.808c1.371,0.767,3.088,0.617,4.203-0.498
		c0.749-0.749,1.052-1.754,0.968-2.75c1.322-0.802,2.656-1.562,3.988-2.315c1.405,0.924,3.264,0.81,4.446-0.372
		c0.681-0.681,1.012-1.578,0.988-2.482c1.291-0.642,2.581-1.249,3.874-1.839c1.426,1.088,3.419,1.038,4.66-0.202
		c0.605-0.605,0.92-1.388,0.966-2.195c1.24-0.489,2.466-0.965,3.708-1.399c1.429,1.288,3.573,1.304,4.889-0.012
		c0.537-0.537,0.849-1.212,0.947-1.903c1.154-0.348,2.305-0.676,3.455-0.982c0.021,0.031,0.04,0.064,0.068,0.092
		c1.434,1.434,3.688,1.478,5.049,0.117c0.452-0.452,0.739-1.013,0.882-1.59c1.072-0.219,2.13-0.415,3.201-0.591
		c0.083,0.117,0.173,0.239,0.272,0.338c1.429,1.429,3.688,1.477,5.049,0.115c0.375-0.375,0.633-0.812,0.794-1.269
		c0.963-0.101,1.908-0.181,2.857-0.24c0.144,0.22,0.313,0.435,0.509,0.631c1.424,1.424,3.686,1.478,5.051,0.113
		c0.275-0.275,0.483-0.601,0.648-0.939c0.846,0.002,1.697,0.021,2.539,0.044c0.178,0.35,0.393,0.685,0.693,0.984
		c1.424,1.424,3.69,1.474,5.05,0.113c0.182-0.182,0.336-0.379,0.471-0.588c0.723,0.082,1.455,0.188,2.173,0.299
		c0.189,0.496,0.474,0.967,0.874,1.367c1.436,1.436,3.692,1.482,5.053,0.121c0.076-0.076,0.13-0.168,0.207-0.245
		c0.625,0.162,1.248,0.334,1.867,0.505c0.156,0.661,0.485,1.304,1.005,1.825c1.391,1.391,3.555,1.458,4.933,0.215
		c0.54,0.224,1.079,0.443,1.62,0.678c0.063,0.837,0.411,1.669,1.068,2.327c1.254,1.254,3.171,1.439,4.538,0.524
		c0.48,0.272,0.942,0.562,1.416,0.852c-0.062,1.015,0.282,2.065,1.073,2.856c1.125,1.125,2.749,1.385,4.065,0.794
		c0.436,0.34,0.871,0.72,1.295,1.062c-0.278,1.192,0.054,2.49,1,3.436c0.97,0.97,2.326,1.29,3.521,0.968
		c0.389,0.424,0.765,0.848,1.129,1.292c-0.533,1.284-0.255,2.866,0.833,3.955c0.822,0.822,1.924,1.171,2.976,1.074
		c0.308,0.457,0.604,0.912,0.881,1.38c-0.847,1.357-0.641,3.211,0.598,4.45c0.68,0.68,1.556,1.038,2.417,1.09
		c0.258,0.515,0.494,1.035,0.717,1.564c-1.182,1.386-1.085,3.5,0.276,4.861c0.546,0.546,1.225,0.879,1.916,1.021
		c0.208,0.607,0.379,1.213,0.542,1.811c-0.059,0.059-0.117,0.095-0.177,0.154c-1.36,1.36-1.303,3.63,0.118,5.051
		c0.426,0.426,0.93,0.708,1.46,0.894c0.125,0.705,0.238,1.417,0.345,2.115c-0.18,0.127-0.359,0.269-0.525,0.435
		c-1.364,1.364-1.312,3.618,0.115,5.045c0.318,0.318,0.672,0.555,1.05,0.744c0.046,0.816,0.083,1.635,0.11,2.472
		c-0.312,0.15-0.62,0.346-0.874,0.599c-1.361,1.361-1.314,3.621,0.125,5.06c0.209,0.209,0.443,0.381,0.685,0.529
		c-0.039,0.939-0.101,1.867-0.168,2.801c-0.451,0.162-0.865,0.415-1.222,0.771c-1.36,1.36-1.315,3.629,0.111,5.056
		c0.125,0.125,0.271,0.223,0.406,0.327c-0.155,1.044-0.333,2.081-0.522,3.125c-0.556,0.151-1.09,0.426-1.528,0.864
		c-1.361,1.36-1.308,3.635,0.113,5.056c0.044,0.044,0.1,0.066,0.142,0.107c-0.273,1.139-0.588,2.27-0.897,3.402
		c-0.683,0.117-1.328,0.424-1.849,0.944c-1.328,1.328-1.298,3.513,0.025,4.937c-0.413,1.226-0.848,2.44-1.31,3.663
		c-0.79,0.064-1.547,0.368-2.14,0.961c-1.263,1.263-1.295,3.279-0.165,4.704c-0.567,1.283-1.141,2.577-1.749,3.849
		c-0.887-0.004-1.773,0.321-2.435,0.984c-1.198,1.198-1.303,3.086-0.34,4.49c-0.712,1.327-1.449,2.648-2.212,3.972
		c-0.98-0.078-1.979,0.241-2.702,0.965c-1.13,1.13-1.274,2.874-0.471,4.254c-0.882,1.369-1.778,2.719-2.708,4.062
		c-1.066-0.162-2.172,0.135-2.972,0.935c-1.067,1.067-1.25,2.692-0.593,4.021c-1.043,1.382-2.1,2.737-3.198,4.082
		c-1.146-0.265-2.373,0.028-3.237,0.893c-1.002,1.002-1.238,2.495-0.716,3.786c-1.202,1.362-2.428,2.705-3.701,4.048
		c-1.214-0.362-2.555-0.115-3.486,0.816c-0.935,0.936-1.184,2.3-0.79,3.536c-1.332,1.303-2.679,2.553-4.039,3.8
		c-1.276-0.49-2.747-0.265-3.742,0.73c-0.873,0.874-1.16,2.127-0.867,3.297c-1.349,1.124-2.714,2.215-4.077,3.277
		c-1.331-0.624-2.923-0.426-3.982,0.633c-0.802,0.803-1.105,1.936-0.925,3.017c-1.35,0.96-2.71,1.892-4.07,2.803
		c-1.375-0.761-3.087-0.618-4.212,0.507c-0.741,0.741-1.042,1.755-0.956,2.752c-1.328,0.791-2.655,1.563-3.998,2.309
		c-1.408-0.925-3.264-0.817-4.446,0.364c-0.679,0.679-1.001,1.583-0.988,2.487c-1.291,0.641-2.579,1.247-3.863,1.836
		c-1.434-1.095-3.427-1.048-4.673,0.199c-0.606,0.606-0.909,1.387-0.958,2.198c-1.24,0.491-2.47,0.964-3.703,1.397
		c-1.425-1.283-3.578-1.294-4.891,0.019C133.465,223.959,133.147,224.629,133.045,225.332z M32.217,146.969
		c5.396-24.466,18.924-49.707,39.917-71.208c-0.076,1.026,0.237,2.089,1.043,2.895c0.796,0.796,1.842,1.118,2.848,1.05
		c-20.104,20.665-33.063,44.923-38.15,68.33c-0.164-0.327-0.348-0.655-0.633-0.94C35.826,145.681,33.586,145.628,32.217,146.969z
		 M149.184,37.365c0.243,0.243,0.525,0.378,0.798,0.544c-24.169,4.688-49.419,17.843-70.824,38.659
		c0.071-1.007-0.252-2.054-1.048-2.85c-0.802-0.802-1.86-1.12-2.884-1.043c22.289-21.687,48.565-35.395,73.824-40.331
		C147.71,33.707,147.767,35.948,149.184,37.365z M243.417,127.237c-5.007,25.094-18.649,51.148-40.154,73.281
		c0.022-0.977-0.316-1.966-1.076-2.725c-0.719-0.72-1.64-1.091-2.563-1.103c20.512-21.154,33.569-46.027,38.363-69.911
		c0.109,0.142,0.175,0.311,0.309,0.444c1.425,1.425,3.688,1.484,5.058,0.114C243.378,127.317,243.388,127.266,243.417,127.237z
		 M244.058,123.58c-0.183-0.465-0.455-0.905-0.832-1.283c-1.208-1.208-2.997-1.378-4.344-0.573
		c3.688-24.137-1.207-46.888-15.488-63.207c0.965-0.015,1.904-0.352,2.62-1.067c0.982-0.982,1.231-2.371,0.916-3.656
		C243.1,71.701,248.502,96.946,244.058,123.58z M224.115,50.838c-1.339-0.394-2.813-0.148-3.838,0.876
		c-0.688,0.687-1.013,1.601-1.049,2.528c-16.383-15.468-39.817-20.889-64.767-17.112c1.068-1.37,0.973-3.379-0.343-4.695
		c-0.344-0.345-0.735-0.592-1.145-0.786C180.386,27.256,206.263,33.33,224.115,50.838z M31.458,150.665
		c0.188,0.496,0.45,0.967,0.849,1.365c1.336,1.336,3.354,1.411,4.74,0.332c-4.593,25.97,0.657,50.528,16.73,67.494
		c-0.988-0.006-1.979,0.341-2.725,1.087c-1.07,1.07-1.301,2.618-0.829,3.996C31.973,206.443,26.097,179.242,31.458,150.665z
		 M52.961,227.548c1.338,0.399,2.801,0.155,3.824-0.868c0.771-0.771,1.125-1.798,1.085-2.837
		c16.79,14.759,40.407,19.533,65.356,15.233c-0.877,1.364-0.749,3.222,0.497,4.467c0.407,0.407,0.881,0.668,1.366,0.85
		C97.586,249.535,71.372,244.243,52.961,227.548z"/>
</g>
<g>
	<path fill="#FFF8A1" d="M305.788,305.79c-47.161,47.161-36.797,133.989,23.143,193.929
		c59.945,59.944,146.767,70.306,193.929,23.144c47.163-47.163,36.807-133.99-23.138-193.935
		C439.784,268.987,352.95,258.626,305.788,305.79z M516.482,516.483c-21.758,21.758-52.883,31.463-87.645,27.32
		c-34.409-4.104-68.315-21.332-95.485-48.502c-27.168-27.168-44.396-61.073-48.5-95.484c-4.148-34.767,5.555-65.894,27.312-87.65
		c21.762-21.764,52.896-31.475,87.648-27.32c34.408,4.105,68.32,21.328,95.489,48.496c27.17,27.17,44.391,61.083,48.497,95.49
		C547.957,463.59,538.244,494.722,516.482,516.483z"/>
	<path fill="#FFF8A1" d="M316.777,316.778c-41.979,41.98-32.384,119.898,21.407,173.689
		c53.789,53.789,131.709,63.385,173.688,21.406c41.992-41.992,32.389-119.904-21.4-173.693
		C436.681,284.39,358.771,274.786,316.777,316.778z M514.827,423.778c-0.201,0.2-0.312,0.44-0.464,0.674
		c-5.062-23.343-17.96-47.531-37.981-68.164c0.923-0.018,1.845-0.384,2.565-1.105c0.759-0.758,1.095-1.754,1.072-2.734
		c20.96,21.508,34.464,46.736,39.833,71.19C518.486,422.303,516.253,422.352,514.827,423.778z M501.55,419.39
		c0.344,1.147,0.668,2.311,0.967,3.458c-0.023,0.023-0.056,0.042-0.087,0.073c-1.425,1.424-1.478,3.688-0.111,5.054
		c0.451,0.45,1.011,0.731,1.603,0.872c0.213,1.064,0.411,2.131,0.576,3.194c-0.101,0.089-0.231,0.173-0.338,0.278
		c-1.429,1.43-1.477,3.689-0.113,5.053c0.364,0.364,0.812,0.622,1.278,0.787c0.093,0.957,0.177,1.908,0.237,2.856
		c-0.233,0.149-0.442,0.31-0.643,0.509c-1.422,1.422-1.462,3.688-0.104,5.045c0.282,0.283,0.599,0.484,0.939,0.65
		c-0.003,0.857-0.029,1.699-0.062,2.543c-0.348,0.178-0.684,0.395-0.976,0.688c-1.436,1.436-1.482,3.691-0.118,5.057
		c0.187,0.186,0.38,0.334,0.601,0.473c-0.092,0.736-0.202,1.459-0.308,2.184c-0.495,0.182-0.977,0.465-1.376,0.864
		c-1.429,1.429-1.474,3.696-0.112,5.057c0.073,0.074,0.161,0.13,0.24,0.194c-0.153,0.635-0.324,1.258-0.495,1.878
		c-0.671,0.154-1.31,0.486-1.832,1.009c-1.387,1.387-1.466,3.561-0.216,4.936c-0.217,0.537-0.442,1.082-0.682,1.62
		c-0.842,0.071-1.668,0.422-2.315,1.069c-1.265,1.265-1.439,3.174-0.533,4.539c-0.27,0.471-0.563,0.938-0.85,1.41
		c-1.015-0.063-2.071,0.282-2.87,1.081c-1.113,1.113-1.373,2.745-0.789,4.062c-0.343,0.432-0.706,0.859-1.068,1.283
		c-1.175-0.259-2.482,0.062-3.429,1.008c-0.973,0.973-1.289,2.333-0.963,3.521c-0.737,0.666-1.471,1.303-2.232,1.93
		c-1.309-0.584-2.926-0.322-4.042,0.793c-0.801,0.801-1.143,1.867-1.069,2.891c-0.849,0.536-1.724,1.049-2.599,1.539
		c-1.373-0.957-3.308-0.788-4.585,0.49c-0.635,0.634-0.982,1.438-1.07,2.258c-0.964,0.402-1.961,0.781-2.944,1.143
		c-1.37-1.37-3.628-1.318-5.054,0.107c-0.482,0.482-0.794,1.07-0.969,1.695c-1.111,0.264-2.236,0.51-3.379,0.717
		c-0.103-0.139-0.215-0.281-0.34-0.406c-1.36-1.36-3.621-1.305-5.045,0.119c-0.346,0.346-0.623,0.753-0.803,1.18
		c-1.269,0.119-2.551,0.218-3.844,0.275c-0.158-0.299-0.338-0.577-0.58-0.82c-1.367-1.367-3.633-1.314-5.062,0.114
		c-0.23,0.231-0.404,0.493-0.566,0.751c-0.662-0.021-1.318-0.045-1.99-0.086c-0.162-0.403-0.408-0.795-0.738-1.125
		c-1.361-1.36-3.619-1.313-5.049,0.115c-0.143,0.145-0.26,0.301-0.385,0.464c-0.756-0.093-1.51-0.191-2.275-0.312
		c-0.16-0.521-0.43-1.019-0.834-1.423c-1.366-1.365-3.634-1.316-5.057,0.106c-0.064,0.064-0.111,0.15-0.168,0.211
		c-0.853-0.179-1.693-0.366-2.541-0.566c-0.133-0.632-0.426-1.239-0.916-1.729c-1.357-1.358-3.617-1.302-5.039,0.112
		c-0.922-0.271-1.841-0.565-2.763-0.869c-0.089-0.739-0.399-1.44-0.953-1.994c-1.29-1.289-3.388-1.297-4.813-0.067
		c-0.99-0.397-1.992-0.784-2.979-1.21c-0.047-0.826-0.354-1.637-0.979-2.26c-1.228-1.229-3.193-1.292-4.614-0.24
		c-1.04-0.498-2.077-1.016-3.114-1.548c0.027-0.914-0.3-1.83-0.984-2.515c-1.174-1.173-3.012-1.297-4.416-0.394
		c-1.08-0.604-2.162-1.259-3.245-1.907c0.102-1.004-0.204-2.016-0.954-2.765c-1.107-1.108-2.82-1.269-4.184-0.515
		c-1.125-0.736-2.223-1.508-3.324-2.287c0.188-1.073-0.107-2.199-0.923-3.014c-1.054-1.055-2.649-1.258-3.983-0.621
		c-1.11-0.871-2.234-1.762-3.336-2.673c0.273-1.153-0.023-2.392-0.887-3.256c-1.002-1.001-2.486-1.234-3.766-0.731
		c-1.121-1.004-2.229-2.025-3.337-3.073c0.366-1.217,0.12-2.56-0.81-3.489c-0.939-0.939-2.307-1.177-3.531-0.789
		c-1.272-1.318-2.523-2.633-3.738-3.976c0.494-1.274,0.266-2.739-0.724-3.728c-0.884-0.883-2.132-1.156-3.29-0.884
		c-1.129-1.345-2.223-2.706-3.291-4.069c0.625-1.337,0.436-2.925-0.624-3.984c-0.812-0.812-1.938-1.109-3.019-0.928
		c-0.965-1.348-1.905-2.705-2.809-4.07c0.768-1.371,0.617-3.089-0.497-4.203c-0.749-0.75-1.754-1.053-2.751-0.969
		c-0.802-1.321-1.562-2.655-2.314-3.988c0.924-1.404,0.811-3.264-0.371-4.445c-0.682-0.681-1.578-1.012-2.482-0.988
		c-0.643-1.291-1.25-2.581-1.84-3.873c1.088-1.427,1.039-3.42-0.201-4.66c-0.605-0.605-1.389-0.92-2.195-0.966
		c-0.489-1.24-0.965-2.466-1.399-3.708c1.288-1.429,1.304-3.573-0.013-4.889c-0.536-0.537-1.211-0.85-1.902-0.947
		c-0.348-1.154-0.676-2.305-0.982-3.455c0.031-0.021,0.064-0.039,0.093-0.068c1.435-1.434,1.478-3.688,0.116-5.049
		c-0.451-0.451-1.013-0.739-1.59-0.882c-0.219-1.071-0.415-2.13-0.591-3.2c0.116-0.083,0.239-0.174,0.339-0.273
		c1.428-1.429,1.477-3.688,0.115-5.049c-0.375-0.375-0.812-0.633-1.27-0.794c-0.101-0.963-0.181-1.908-0.24-2.857
		c0.221-0.144,0.436-0.313,0.631-0.509c1.424-1.424,1.479-3.686,0.113-5.051c-0.275-0.275-0.601-0.482-0.939-0.648
		c0.003-0.846,0.021-1.696,0.045-2.539c0.35-0.178,0.684-0.393,0.984-0.692c1.424-1.425,1.474-3.69,0.113-5.05
		c-0.182-0.182-0.379-0.337-0.589-0.472c0.081-0.724,0.188-1.455,0.3-2.173c0.496-0.189,0.967-0.474,1.367-0.874
		c1.436-1.436,1.481-3.692,0.121-5.054c-0.076-0.075-0.169-0.13-0.245-0.206c0.162-0.624,0.335-1.248,0.505-1.866
		c0.66-0.156,1.305-0.485,1.825-1.006c1.391-1.391,1.458-3.555,0.216-4.934c0.224-0.539,0.442-1.078,0.678-1.619
		c0.838-0.064,1.67-0.411,2.327-1.068c1.255-1.255,1.439-3.172,0.524-4.539c0.272-0.479,0.562-0.941,0.852-1.415
		c1.015,0.062,2.064-0.282,2.855-1.073c1.126-1.125,1.385-2.749,0.795-4.064c0.34-0.436,0.721-0.871,1.062-1.296
		c1.191,0.278,2.489-0.054,3.436-1.001c0.97-0.97,1.289-2.326,0.968-3.521c0.424-0.389,0.848-0.765,1.292-1.13
		c1.284,0.533,2.866,0.256,3.955-0.833c0.822-0.821,1.171-1.924,1.074-2.976c0.457-0.309,0.912-0.604,1.38-0.881
		c1.357,0.847,3.212,0.641,4.45-0.598c0.68-0.681,1.037-1.557,1.09-2.417c0.515-0.258,1.035-0.494,1.564-0.717
		c1.386,1.183,3.5,1.085,4.861-0.276c0.545-0.545,0.879-1.225,1.021-1.916c0.606-0.207,1.214-0.379,1.812-0.541
		c0.059,0.059,0.095,0.117,0.153,0.176c1.36,1.361,3.63,1.304,5.052-0.117c0.426-0.426,0.708-0.93,0.893-1.461
		c0.705-0.125,1.417-0.238,2.115-0.344c0.127,0.18,0.269,0.359,0.436,0.525c1.363,1.363,3.617,1.312,5.045-0.115
		c0.318-0.318,0.555-0.672,0.744-1.051c0.815-0.045,1.635-0.082,2.471-0.109c0.15,0.312,0.346,0.619,0.6,0.873
		c1.361,1.361,3.621,1.314,5.06-0.125c0.209-0.209,0.381-0.443,0.529-0.684c0.939,0.039,1.866,0.1,2.802,0.168
		c0.162,0.451,0.414,0.865,0.77,1.221c1.361,1.361,3.629,1.316,5.057-0.111c0.125-0.125,0.223-0.27,0.326-0.406
		c1.045,0.156,2.08,0.334,3.125,0.523c0.15,0.555,0.426,1.09,0.863,1.527c1.361,1.361,3.635,1.309,5.057-0.113
		c0.044-0.043,0.066-0.1,0.107-0.141c1.139,0.273,2.27,0.588,3.402,0.896c0.117,0.684,0.424,1.328,0.944,1.85
		c1.328,1.327,3.513,1.297,4.937-0.025c1.227,0.412,2.44,0.848,3.664,1.309c0.063,0.79,0.367,1.548,0.961,2.141
		c1.262,1.263,3.279,1.295,4.703,0.165c1.283,0.567,2.577,1.142,3.85,1.749c-0.004,0.887,0.321,1.772,0.984,2.435
		c1.197,1.198,3.086,1.303,4.489,0.341c1.327,0.711,2.647,1.448,3.972,2.211c-0.078,0.98,0.242,1.979,0.965,2.703
		c1.131,1.13,2.875,1.273,4.254,0.471c1.369,0.883,2.719,1.778,4.062,2.709c-0.162,1.065,0.135,2.172,0.936,2.971
		c1.066,1.068,2.691,1.25,4.021,0.594c1.382,1.043,2.736,2.1,4.081,3.197c-0.265,1.146,0.028,2.373,0.893,3.236
		c1.002,1.003,2.495,1.238,3.786,0.717c1.362,1.202,2.705,2.428,4.048,3.701c-0.362,1.213-0.115,2.555,0.816,3.485
		c0.936,0.935,2.3,1.184,3.536,0.79c1.303,1.332,2.553,2.68,3.8,4.039c-0.49,1.275-0.265,2.746,0.73,3.741
		c0.874,0.873,2.127,1.159,3.297,0.867c1.124,1.349,2.215,2.714,3.277,4.077c-0.624,1.33-0.426,2.923,0.633,3.982
		c0.803,0.802,1.936,1.104,3.017,0.924c0.96,1.35,1.892,2.711,2.803,4.07c-0.761,1.375-0.618,3.087,0.507,4.213
		c0.741,0.74,1.755,1.041,2.752,0.955c0.791,1.328,1.563,2.655,2.309,3.998c-0.925,1.408-0.817,3.265,0.364,4.446
		c0.679,0.679,1.583,1.001,2.487,0.988c0.641,1.29,1.247,2.579,1.836,3.862c-1.095,1.434-1.048,3.428,0.199,4.674
		c0.606,0.606,1.387,0.909,2.198,0.959c0.491,1.239,0.964,2.469,1.397,3.703c-1.283,1.425-1.294,3.578,0.019,4.891
		C500.177,418.969,500.847,419.286,501.55,419.39z M423.187,520.218c-24.465-5.396-49.706-18.925-71.207-39.917
		c1.025,0.075,2.088-0.237,2.895-1.043c0.795-0.796,1.117-1.842,1.05-2.849c20.665,20.105,44.923,33.063,68.33,38.15
		c-0.327,0.164-0.655,0.348-0.94,0.633C421.899,516.608,421.847,518.849,423.187,520.218z M313.583,403.25
		c0.242-0.243,0.378-0.525,0.544-0.798c4.688,24.17,17.843,49.42,38.659,70.824c-1.007-0.071-2.055,0.252-2.85,1.047
		c-0.803,0.803-1.12,1.86-1.043,2.885c-21.688-22.289-35.395-48.565-40.331-73.824C309.925,404.724,312.165,404.667,313.583,403.25z
		 M403.454,309.017c25.095,5.008,51.148,18.65,73.281,40.154c-0.977-0.022-1.966,0.316-2.725,1.076
		c-0.72,0.719-1.091,1.639-1.103,2.562c-21.154-20.512-46.027-33.568-69.911-38.363c0.143-0.109,0.311-0.174,0.445-0.309
		c1.424-1.424,1.483-3.688,0.113-5.057C403.534,309.056,403.483,309.046,403.454,309.017z M399.798,308.376
		c-0.466,0.184-0.906,0.455-1.283,0.832c-1.209,1.209-1.379,2.998-0.573,4.344c-24.137-3.688-46.888,1.207-63.206,15.488
		c-0.016-0.965-0.352-1.904-1.067-2.619c-0.981-0.982-2.37-1.232-3.656-0.916C347.919,309.335,373.164,303.933,399.798,308.376z
		 M327.056,328.319c-0.393,1.339-0.148,2.812,0.877,3.838c0.687,0.688,1.6,1.012,2.527,1.049
		c-15.468,16.383-20.889,39.816-17.112,64.767c-1.37-1.068-3.379-0.974-4.694,0.343c-0.346,0.344-0.593,0.735-0.786,1.145
		C303.474,372.048,309.548,346.171,327.056,328.319z M426.882,520.976c0.496-0.188,0.967-0.449,1.365-0.848
		c1.336-1.336,1.41-3.354,0.332-4.74c25.97,4.594,50.527-0.656,67.493-16.73c-0.006,0.988,0.341,1.979,1.087,2.725
		c1.07,1.07,2.618,1.301,3.996,0.83C482.661,520.461,455.46,526.337,426.882,520.976z M503.766,499.474
		c0.399-1.339,0.155-2.801-0.868-3.824c-0.771-0.771-1.798-1.125-2.837-1.085c14.759-16.79,19.533-40.407,15.233-65.356
		c1.364,0.877,3.222,0.748,4.467-0.496c0.407-0.408,0.668-0.881,0.85-1.367C525.753,454.849,520.461,481.062,503.766,499.474z"/>
</g>
</svg>
