<svg version="1.1" id="Layer_1" xmlns="http://www.w3.org/2000/svg" xmlns:xlink="http://www.w3.org/1999/xlink" x="0px" y="0px"
	 width="50px" height="auto" viewBox="87.881 48.826 277.171 182.345"
	 enable-background="new 87.881 48.826 277.171 182.345" xml:space="preserve" fill="#CD8B7A" opacity=".5">
<g>
	<path d="M235.417,100.228V89.152h-4.077V78.333h13.773c1.373,0,2.487-1.114,2.487-2.492c0-1.374-1.114-2.494-2.487-2.494h-37.282
		c-1.374,0-2.485,1.12-2.485,2.494c0,1.377,1.112,2.492,2.485,2.492h13.771v10.819h-4.078v11.076
		c-38.129,4.43-67.729,36.832-67.729,76.145h153.337C303.139,137.06,273.545,104.658,235.417,100.228z"/>
	<path d="M320.212,193.379c0-7.33-5.94-13.281-13.271-13.281H145.989c-7.324,0-13.271,5.941-13.271,13.281
		c0,7.33-13.82,13.271-6.49,13.271h200.477C334.039,206.651,320.212,200.709,320.212,193.379z"/>
</g>
</svg>
