<svg version="1.1" id="Layer_1" opacity="0.5" xmlns="http://www.w3.org/2000/svg" xmlns:xlink="http://www.w3.org/1999/xlink"
	 x="0px" y="0px" width="50px" height="auto" viewBox="0 0 360.302 360.36" enable-background="new 0 0 360.302 360.36"
	 xml:space="preserve">
<g>
	<path fill="#CD8B7A" d="M153.594,39.24l7.832-7.832l-2.883-2.883l7.65-7.65l9.739,9.739c0.971,0.971,2.547,0.971,3.521-0.003
		c0.971-0.972,0.976-2.551,0.004-3.522L153.096,0.726c-0.972-0.972-2.549-0.965-3.521,0.006c-0.974,0.974-0.976,2.548-0.005,3.52
		l9.737,9.737l-7.65,7.65l-2.884-2.884l-7.832,7.832C110.848,2.758,67.006,4.74,39.207,32.539l108.426,108.425
		C175.437,113.17,177.422,69.333,153.594,39.24z"/>
	<path fill="#CD8B7A" d="M147.685,165.066c5.183-5.183,5.191-13.591,0.007-18.775L33.882,32.48
		c-5.178-5.178-13.585-5.183-18.775,0.007C9.924,37.671-4.049,32.1,1.134,37.283l141.759,141.759
		C148.078,184.229,142.502,170.25,147.685,165.066z"/>
</g>
<g>
	<path fill="#CD8B7A" d="M219.365,206.767l-7.832-7.832l-2.884,2.883l-7.649-7.65l9.738-9.738c0.972-0.971,0.972-2.547-0.003-3.521
		c-0.972-0.971-2.552-0.976-3.522-0.004l-26.362,26.361c-0.972,0.972-0.965,2.549,0.007,3.521c0.974,0.973,2.548,0.976,3.52,0.004
		l9.737-9.736l7.65,7.649l-2.884,2.884l7.832,7.832c-23.829,30.094-21.848,73.936,5.951,101.734l108.425-108.426
		C293.295,184.924,249.457,182.938,219.365,206.767z"/>
	<path fill="#CD8B7A" d="M345.191,212.675c-5.184-5.183-13.592-5.191-18.775-0.007L212.605,326.479
		c-5.178,5.179-5.183,13.585,0.008,18.774c5.183,5.184-0.388,19.156,4.795,13.974l141.759-141.759
		C364.354,212.282,350.375,217.858,345.191,212.675z"/>
</g>
</svg>
